<?xml version="1.0" encoding="iso-8859-1"?>
<!-- Generator: Adobe Illustrator 19.0.0, SVG Export Plug-In . SVG Version: 6.00 Build 0)  -->
<svg version="1.1" id="Capa_1" xmlns="http://www.w3.org/2000/svg" xmlns:xlink="http://www.w3.org/1999/xlink" x="0px" y="0px"
	 viewBox="0 0 511.998 511.998" style="enable-background:new 0 0 511.998 511.998;" xml:space="preserve">
<path style="fill:#AA2F26;" d="M290.708,451.223l42.284,12.738c10.847,2.716,18.456,12.461,18.456,23.637l0,0
	c0,13.458-10.907,24.366-24.366,24.366H184.915c-13.458,0-24.366-10.907-24.366-24.366l0,0c0-11.176,7.61-20.921,18.456-23.637
	l42.284-12.738H290.708z"/>
<g>
	<path style="fill:#BD3A2B;" d="M247.322,511.964h44.202c13.927,0,25.216-11.289,25.216-25.216l0,0
		c-0.651-10.63-7.358-19.94-17.242-23.914l-8.79-2.933H221.29l-8.79,2.933c-9.883,3.974-16.591,13.285-17.242,23.914l0,0
		c0,13.927,11.289,25.216,25.216,25.216h44.202"/>
	<path style="fill:#BD3A2B;" d="M73.777,234.292c8.183,10.933,21.051,17.372,34.709,17.354h76.516
		c20.036,0.009,36.279-16.226,36.279-36.262c0-2.395-0.234-4.781-0.703-7.124H117.163l-8.677,8.677L73.777,234.292z"/>
	<path style="fill:#BD3A2B;" d="M438.221,234.292c-8.183,10.933-21.051,17.372-34.709,17.354h-69.418
		c-20.036,0.009-36.279-16.226-36.279-36.262c0-2.395,0.234-4.781,0.703-7.124h96.317l8.677,8.677L438.221,234.292z"/>
	<path style="fill:#BD3A2B;" d="M125.84,147.52c-2.299,0-4.512-0.911-6.135-2.542l-26.032-26.032
		c-2.742-2.742-3.332-6.968-1.449-10.352l40.783-73.47L118.621,13.5c-2.664-3.983-1.597-9.371,2.386-12.035
		c3.098-2.074,7.185-1.935,10.135,0.347c8.556,7.454,15.22,16.825,19.463,27.342c11.194,36.575,6.065,76.195-14.066,108.717
		l-3.263,5.441c-1.371,2.291-3.723,3.818-6.378,4.148C126.552,147.503,126.196,147.52,125.84,147.52z"/>
</g>
<g>
	<path style="fill:#AA2F26;" d="M99.809,407.837H82.454V329.36c0.009-12.556,3.028-24.921,8.807-36.063l98.92-190.24
		c7.705-14.838,25.988-20.617,40.826-12.903c10.04,5.215,16.331,15.593,16.313,26.899v65.175h-17.354v-65.175
		c-0.009-7.141-5.805-12.92-12.946-12.912c-4.807,0.009-9.215,2.681-11.445,6.95l-98.912,190.24
		c-4.495,8.66-6.846,18.274-6.855,28.027V407.837z"/>
	<path style="fill:#AA2F26;" d="M429.544,407.837h-17.354V329.36c-0.009-9.753-2.36-19.368-6.855-28.027l-98.92-190.257
		c-3.289-6.334-11.098-8.79-17.424-5.501c-4.278,2.221-6.959,6.647-6.959,11.463v65.192h-17.354v-65.175
		c0-16.721,13.563-30.275,30.284-30.266c11.289,0,21.641,6.282,26.847,16.296l98.929,190.214
		c5.779,11.142,8.799,23.507,8.807,36.063L429.544,407.837L429.544,407.837z"/>
	<path style="fill:#AA2F26;" d="M203.936,303.71h-34.709c-1.345,0.017-2.673-0.286-3.879-0.868l-34.709-17.354l7.757-15.532
		l32.878,16.4h32.661V303.71z"/>
	<rect x="125.84" y="321.056" style="fill:#AA2F26;" width="95.45" height="17.354"/>
	<path style="fill:#AA2F26;" d="M138.396,389.615l-7.757-15.532l34.709-17.354c1.197-0.616,2.525-0.946,3.879-0.954h52.063v17.354
		h-50.016L138.396,389.615z"/>
	<path style="fill:#AA2F26;" d="M158.007,431.326l-12.27-12.27l26.032-26.032c1.623-1.631,3.835-2.542,6.135-2.542h43.386v17.354
		h-39.794L158.007,431.326z"/>
	<path style="fill:#AA2F26;" d="M342.771,303.71h-34.709v-17.354h32.661l32.878-16.487l7.757,15.532l-34.709,17.354
		C345.453,303.372,344.125,303.702,342.771,303.71z"/>
	<rect x="290.708" y="321.056" style="fill:#AA2F26;" width="95.45" height="17.354"/>
	<path style="fill:#AA2F26;" d="M373.601,389.615l-32.878-16.487h-50.016v-17.354h52.063c1.345-0.017,2.673,0.286,3.879,0.868
		l34.709,17.354L373.601,389.615z"/>
	<path style="fill:#AA2F26;" d="M353.991,431.326l-23.489-23.489h-39.794v-17.354h43.386c2.299,0,4.512,0.911,6.135,2.542
		l26.032,26.032L353.991,431.326z"/>
</g>
<path style="fill:#DE4C3C;" d="M284.747,173.283l-28.748-43.117l-28.748,43.117c-15.203,22.804-23.316,49.599-23.316,77.01v53.417
	l17.354,130.158v17.354l12.591,44.054c3.471,12.218,16.192,19.316,28.418,15.836c7.671-2.178,13.658-8.174,15.836-15.836
	l12.573-44.054v-17.354l17.354-130.158v-53.417C308.062,222.882,299.958,196.087,284.747,173.283z"/>
<path style="fill:#D14839;" d="M284.747,173.283l-28.748-43.117l-13.406,20.114l3.202,4.816
	c17.971,26.951,27.559,58.623,27.559,91.015v63.118l-20.513,153.83l-7.376,46.328c11.254,5.84,25.112,1.44,30.952-9.814
	c0.712-1.371,1.284-2.811,1.701-4.295l12.591-44.054v-17.354l17.354-130.158v-53.417
	C308.062,222.882,299.958,196.087,284.747,173.283z"/>
<path style="fill:#DE4C3C;" d="M106.655,217.858l-32.878,16.435l-41.651-31.238C14.65,189.943,4.359,169.369,4.359,147.52V95.457
	c0-47.924,38.848-86.772,86.772-86.772l0,0v88.265c0,4.599,1.831,9.016,5.085,12.27l29.624,29.624v47.968
	C125.849,199.957,118.421,211.975,106.655,217.858z"/>
<path style="fill:#D14839;" d="M96.216,109.219l3.592,56.584c0,14.161-8,27.099-20.66,33.433L47.91,214.855l25.867,19.437
	l32.878-16.435c11.758-5.883,19.185-17.901,19.185-31.047v-47.968L96.216,109.219z"/>
<path style="fill:#DE4C3C;" d="M405.343,217.858l32.878,16.435l41.651-31.238c17.476-13.111,27.767-33.685,27.767-55.534V95.457
	c0-47.924-38.848-86.772-86.772-86.772l0,0v88.265c0,4.599-1.831,9.016-5.085,12.27l-29.624,29.624v47.968
	C386.157,199.957,393.585,211.975,405.343,217.858z"/>
<path style="fill:#D14839;" d="M441.466,11.288c19.932,16.461,31.472,40.965,31.464,66.815v52.063
	c0,21.849-10.291,42.423-27.767,55.534l-41.529,31.143c0.581,0.33,1.111,0.712,1.735,1.015l32.852,16.435l41.651-31.238
	c17.476-13.111,27.767-33.685,27.767-55.534V95.457C507.587,55.515,480.271,20.772,441.466,11.288z"/>
<g>
	<path style="fill:#AA2F26;" d="M386.157,138.843V60.748c0-16.391,7.714-31.819,20.825-41.651l13.884-10.413v95.45L386.157,138.843z
		"/>
	<rect x="30.391" y="112.803" style="fill:#AA2F26;" width="17.354" height="17.354"/>
	<rect x="56.423" y="138.834" style="fill:#AA2F26;" width="17.354" height="17.354"/>
	<rect x="412.172" y="156.189" style="fill:#AA2F26;" width="17.354" height="17.354"/>
	<rect x="464.235" y="130.157" style="fill:#AA2F26;" width="17.354" height="17.354"/>
</g>
<g>
	<path style="fill:#BD3A2B;" d="M288.165,271.544c-1.623-1.631-3.835-2.542-6.135-2.542h-52.063c-2.299,0-4.512,0.911-6.135,2.542
		l-19.897,19.897v12.27l1.44,10.829l28.184-28.184h44.879l28.184,28.184l1.44-10.829v-12.27L288.165,271.544z"/>
	<path style="fill:#BD3A2B;" d="M273.353,312.388h-34.709c-1.709,0-3.384,0.512-4.816,1.458l-26.214,17.476l2.603,19.151
		l31.03-20.73h29.503l31.099,20.73l2.603-19.151l-26.214-17.476C276.798,312.882,275.098,312.379,273.353,312.388z"/>
	<path style="fill:#BD3A2B;" d="M273.353,355.774h-34.709c-1.709,0-3.384,0.512-4.816,1.458l-20.903,13.936l2.56,19.151
		l25.763-17.19h29.503l25.789,17.19l2.603-19.151l-20.903-13.936C276.798,356.268,275.098,355.765,273.353,355.774z"/>
	<path style="fill:#BD3A2B;" d="M273.353,399.16h-34.709c-2.299,0-4.512,0.911-6.135,2.542l-13.684,13.684l2.464,18.483v3.592
		l20.947-20.947h27.524l20.947,20.947v-3.592l2.464-18.483l-13.684-13.684C277.866,400.071,275.662,399.16,273.353,399.16z"/>
</g>
<g>
</g>
<g>
</g>
<g>
</g>
<g>
</g>
<g>
</g>
<g>
</g>
<g>
</g>
<g>
</g>
<g>
</g>
<g>
</g>
<g>
</g>
<g>
</g>
<g>
</g>
<g>
</g>
<g>
</g>
</svg>
